<svg id="Layer_1" data-name="Layer 1" xmlns="http://www.w3.org/2000/svg" viewBox="0 0 21 21"><defs><style>.cls-1{fill:#fff;}</style></defs><title>whatsapp</title><path class="cls-1" d="M17.48,13.83s-1.57-.78-1.84-.87a1.11,1.11,0,0,0-.36-.08.61.61,0,0,0-.52.3,10.85,10.85,0,0,1-.76.93s0,.05-.06.05L13.62,14a8,8,0,0,1-3.06-2.72.15.15,0,0,1,0-.06s.06-.08.09-.1l.26-.3L11,10.7a1.8,1.8,0,0,0,.25-.39l0-.07a.69.69,0,0,0,0-.67l-.75-1.8c-.16-.4-.38-.58-.69-.58H9.72a3.48,3.48,0,0,0-1.28.32,2.69,2.69,0,0,0-1,2.27,5,5,0,0,0,1,2.69l.05.06a10,10,0,0,0,4.28,3.72,7,7,0,0,0,2.58.66h0c.17,0,.3,0,.42,0h.08a2.74,2.74,0,0,0,1.89-1.34,2.17,2.17,0,0,0,.12-1.4A.92.92,0,0,0,17.48,13.83Z" transform="translate(-1.94 -1.76)"/><path class="cls-1" d="M12.63,1.76A10.29,10.29,0,0,0,2.31,12a10.1,10.1,0,0,0,1.42,5.17L2,22.4a.29.29,0,0,0,.07.28.27.27,0,0,0,.19.08H2.3L7.74,21a10.5,10.5,0,0,0,4.89,1.21,10.24,10.24,0,1,0,0-20.47Zm0,18.34a8.16,8.16,0,0,1-4.5-1.34.26.26,0,0,0-.15,0H7.9l-2.73.87L6.05,17a.28.28,0,0,0,0-.25A8,8,0,0,1,4.46,12a8.17,8.17,0,1,1,8.17,8.1Z" transform="translate(-1.94 -1.76)"/></svg>